<svg xmlns="http://www.w3.org/2000/svg" viewBox="0 0 223 225"><g fill="none" fill-rule="evenodd"><g fill="#FFE066" transform="translate(-5 -2)"><rect width="162" height="27" x="20.822" y="53.322" rx="13.5" transform="rotate(-45 101.822 66.822)"/><rect width="71" height="27" x="138.282" y="46.148" rx="13.5" transform="rotate(-45 173.782 59.648)"/><rect width="78" height="27" x="23.123" y="157.623" rx="13.5" transform="rotate(-45 62.123 171.123)"/><rect width="27" height="27" x="135.592" y="199.592" rx="13.5" transform="rotate(-45 149.092 213.092)"/><rect width="78" height="27" x="-1.877" y="53.623" rx="13.5" transform="rotate(-45 37.123 67.123)"/><rect width="210" height="27" x="43.792" y="134.954" rx="13.5" transform="rotate(-45 148.792 148.454)"/></g><g fill="#5C7CFA" transform="translate(-4 -5)"><rect width="27" height="27" x="5.592" y="139.592" rx="13.5" transform="rotate(-45 19.092 153.092)"/><rect width="27" height="27" x="73.592" y="5.592" rx="13.5" transform="rotate(-45 87.092 19.092)"/><rect width="67" height="27" x="165.42" y="152.763" rx="13.5" transform="rotate(-45 198.92 166.263)"/><rect width="53" height="27" x="92.784" y="103.399" rx="13.5" transform="rotate(-45 119.284 116.9)"/></g></g></svg>